<?xml version="1.0" encoding="utf-8"?>
<!-- Generator: Adobe Illustrator 25.4.0, SVG Export Plug-In . SVG Version: 6.00 Build 0)  -->
<svg version="1.1" id="Layer_1" xmlns="http://www.w3.org/2000/svg" xmlns:xlink="http://www.w3.org/1999/xlink" x="0px" y="0px"
	 viewBox="0 0 10.4 14.4" style="enable-background:new 0 0 10.4 14.4;" xml:space="preserve">
<path d="M10.4,9.2c0,0.2-0.1,0.3-0.2,0.4l-1.4,1.4l-0.5,0.5l-0.9,0.9l-1.7,1.7c-0.1,0.2-0.3,0.3-0.5,0.3c-0.2,0-0.4-0.1-0.5-0.3
	L0.2,9.7C0.1,9.6,0,9.4,0,9.2c0-0.1,0.1-0.3,0.2-0.4c0.1-0.1,0.2-0.2,0.4-0.2c0.2,0,0.3,0.1,0.5,0.2l1.8,1.8L4,11.9l0.1,0.1l0.1,0.1
	l0.4,0.4V0.7c0-0.3,0.1-0.5,0.3-0.6C5.1,0,5.3,0,5.4,0.1c0.2,0.1,0.3,0.3,0.3,0.5c0,0.1,0,0.2,0,0.4s0,0.2,0,0.3v11.3L7,11.3
	c0.8-0.8,1.6-1.6,2.3-2.4C9.5,8.7,9.8,8.6,10,8.7C10.3,8.7,10.4,8.9,10.4,9.2z"/>
</svg>
