<?xml version="1.0" encoding="utf-8"?>
<!-- Generator: Adobe Illustrator 25.4.0, SVG Export Plug-In . SVG Version: 6.00 Build 0)  -->
<svg version="1.1" id="Layer_1" xmlns="http://www.w3.org/2000/svg" xmlns:xlink="http://www.w3.org/1999/xlink" x="0px" y="0px"
	 viewBox="0 0 128.8 16.1" style="enable-background:new 0 0 128.8 16.1;" xml:space="preserve">
<path d="M8.6,0.3c3.6,0,5.1,2.2,5.1,4.7c0.1,2.2-1.3,4.1-3.3,4.8l3.7,6.3h-3.1L7.3,10H3.2c-0.2,0-0.4,0.1-0.4,0.3c0,0,0,0.1,0,0.1
	v5.7H0V9.8c0-1.8,0.8-2.5,2.5-2.5h6.2c1.1,0.1,2.1-0.7,2.2-1.8c0-0.1,0-0.3,0-0.4C10.9,4,10.1,3.1,9,3C8.9,3,8.8,3,8.7,3H0V0.3H8.6z
	"/>
<path d="M27.5,0.3c4.5,0,7.1,2.6,7.1,7.9s-2.5,7.9-7.1,7.9h-2.2c-4.6,0-7.1-2.6-7.1-7.9s2.6-7.9,7.1-7.9H27.5z M25.3,3
	c-3,0-4.4,1.6-4.4,5.2s1.3,5.1,4.4,5.1h2.2c3,0,4.4-1.5,4.4-5.1S30.5,3,27.5,3H25.3z"/>
<path d="M52.4,0.3V3h-8.1c-1.4,0-2.1,0.8-2.1,1.9s0.5,1.9,2.3,1.9h3.7c4.3,0,5.3,2.4,5.3,4.7c0,2.7-1.4,4.6-5,4.6h-8.8v-2.7h8.9
	c1.5,0,2.2-0.8,2.2-2s-0.5-2-2.5-2h-3.7c-4.2,0-5.2-2.4-5.2-4.6c0-2.6,1.4-4.5,4.9-4.5L52.4,0.3z"/>
<path d="M71.6,0.3V3h-7.9c-1.7,0-2.4,0.8-2.4,2s0.8,1.9,2.4,1.9h7.8v2.5h-7.8c-1.6,0-2.4,0.6-2.4,1.9s0.8,2,2.4,2h8v2.8h-8
	c-3.7,0-5.3-1.9-5.3-4.3c-0.1-1.6,0.8-3,2.3-3.6c-1.4-0.6-2.4-2-2.2-3.6c0-2.5,1.6-4.3,5.3-4.3H71.6z"/>
<path d="M85.6,0.3c3.6,0,5.1,2.2,5.1,4.7c0.2,2.6-1.8,4.8-4.4,5c-0.2,0-0.5,0-0.7,0h-4.9c-0.2,0-0.4,0.1-0.4,0.3c0,0,0,0.1,0,0.1
	v5.7h-2.8V9.8c0-1.8,0.8-2.5,2.5-2.5h5.7c1.1,0.1,2.1-0.7,2.2-1.8c0-0.1,0-0.3,0-0.4C88,4,87.2,3.1,86.1,3c-0.1,0-0.2,0-0.3,0h-8.2
	V0.3H85.6z"/>
<path d="M95.7,16.1h-3.1L98.2,2c0.5-1.4,1.9-2.2,3.3-2c1.4-0.2,2.8,0.6,3.3,2l5.3,14H107l-4.8-12.7c-0.1-0.3-0.4-0.6-0.8-0.5
	c-0.4,0-0.7,0.2-0.8,0.5L95.7,16.1z"/>
<path d="M121.7,0.3c4.6,0,7.1,2.6,7.1,7.9s-2.5,7.9-7.1,7.9h-5.6c-0.6,0.1-1.2-0.3-1.3-0.9c0-0.1,0-0.2,0-0.3V1.6
	c-0.1-0.6,0.3-1.2,1-1.3c0.1,0,0.2,0,0.3,0H121.7z M117.5,13c0,0.2,0.1,0.3,0.3,0.3h3.8c3.1,0,4.4-1.5,4.4-5.2S124.7,3,121.7,3h-3.8
	c-0.2,0-0.3,0.1-0.3,0.3L117.5,13z"/>
</svg>
