<svg id="Layer_1" data-name="Layer 1" xmlns="http://www.w3.org/2000/svg" viewBox="0 0 18.83 18.82"><g id="BAGb4H.tif"><path d="M0,5.72H18.83V16.21a2,2,0,0,1-2,2H16.7c-5,0-10,0-15,0A1.59,1.59,0,0,1,0,16.54C0,13,0,9.39,0,5.81,0,5.79,0,5.76,0,5.72ZM13.88,7.89h-.72a.45.45,0,0,0-.49.46c0,.49,0,1,0,1.46a.44.44,0,0,0,.45.47c.51,0,1,0,1.54,0a.4.4,0,0,0,.41-.45c0-.49,0-1,0-1.48a.44.44,0,0,0-.47-.46ZM9.19,15.57h.72a.42.42,0,0,0,.47-.45c0-.5,0-1,0-1.48a.44.44,0,0,0-.47-.47H8.45a.45.45,0,0,0-.47.48v1.42a.47.47,0,0,0,.51.5Zm5.88-1.2h0c0-.23,0-.46,0-.7a.44.44,0,0,0-.47-.5H13.14a.42.42,0,0,0-.46.45q0,.75,0,1.5a.43.43,0,0,0,.46.44h1.48a.41.41,0,0,0,.45-.45C15.08,14.87,15.07,14.62,15.07,14.37ZM8,9.1v.68a.46.46,0,0,0,.47.51c.49,0,1,0,1.48,0,.3,0,.44-.15.45-.45,0-.49,0-1,0-1.48a.44.44,0,0,0-.49-.46H8.47A.46.46,0,0,0,8,8.38ZM3.35,14.37v.68a.47.47,0,0,0,.5.52H5.21a.51.51,0,0,0,.54-.52c0-.47,0-1,0-1.42a.44.44,0,0,0-.47-.46H3.82a.44.44,0,0,0-.47.48C3.34,13.89,3.35,14.13,3.35,14.37Zm0-5.31v.72a.45.45,0,0,0,.47.51c.47,0,.95,0,1.42,0a.49.49,0,0,0,.51-.5q0-.72,0-1.44a.44.44,0,0,0-.48-.45H3.83a.45.45,0,0,0-.48.47C3.34,8.6,3.35,8.83,3.35,9.06Z"/><path d="M13.84.62V2.28a.6.6,0,0,0,.6.67A.59.59,0,0,0,15,2.29V.65l.05,0c.68,0,1.36,0,2,0a1.91,1.91,0,0,1,1.64,1.5,2.9,2.9,0,0,1,0,.51c0,.6,0,1.2,0,1.81H0C0,3.64,0,2.82.05,2A1.52,1.52,0,0,1,1.67.6c.53,0,1.06,0,1.62,0V.85c0,.49,0,1,0,1.46a.59.59,0,1,0,1.17,0V.62Z"/></g></svg>