<svg id="Layer_1" data-name="Layer 1" xmlns="http://www.w3.org/2000/svg" viewBox="0 0 18.5 18.5"><path d="M7.91,5.74a4.67,4.67,0,0,1,3.27,1.35,1.17,1.17,0,0,1,0,1.65,1.18,1.18,0,0,1-1.67,0A2.29,2.29,0,0,0,7,8.25a2,2,0,0,0-.75.49L3,12a2.32,2.32,0,0,0,3.29,3.27l1.62-1.62a1.15,1.15,0,0,1,1.55-.11,1.14,1.14,0,0,1,.24,1.57,2,2,0,0,1-.19.22c-.51.52-1,1-1.54,1.54a4.61,4.61,0,0,1-6,.56,4.43,4.43,0,0,1-2-4.06,4.53,4.53,0,0,1,1.38-3.07L4.63,7.11A4.65,4.65,0,0,1,7.91,5.74Z"/><path d="M13.61,0a4.65,4.65,0,0,1,3.85,7.3,4.69,4.69,0,0,1-.54.64c-1.09,1.11-2.2,2.21-3.3,3.31a4.64,4.64,0,0,1-5.92.46A3.66,3.66,0,0,1,7,11.06a1.12,1.12,0,0,1,.1-1.49,1.16,1.16,0,0,1,1.49-.12c.13.09.24.21.37.3A2.3,2.3,0,0,0,12,9.57L15.3,6.29A2.32,2.32,0,1,0,12,3L10.4,4.62A1.16,1.16,0,0,1,9,4.84,1.15,1.15,0,0,1,8.72,3c.62-.65,1.26-1.28,1.91-1.89A4.35,4.35,0,0,1,13,.06Z"/></svg>