<svg id="Layer_1" data-name="Layer 1" xmlns="http://www.w3.org/2000/svg" viewBox="0 0 18.5 18.5"><g id="ry3lwN.tif"><path d="M13.52,10.47v6.07a1.8,1.8,0,0,1-1.36,1.8,2.33,2.33,0,0,1-.53.06H3.21a1.83,1.83,0,0,1-1.89-1.89V4.42A1.82,1.82,0,0,1,3.21,2.54c2.81,0,5.61,0,8.42,0a1.81,1.81,0,0,1,1.89,1.88Z"/><path d="M5.09,1.32A1.78,1.78,0,0,1,6.28.18,1.77,1.77,0,0,1,6.84.1c2.82,0,5.65,0,8.47,0A1.82,1.82,0,0,1,17.18,2V14.09A1.82,1.82,0,0,1,15.31,16h-.57V4.4a3,3,0,0,0-2.46-3,3.18,3.18,0,0,0-.68-.06c-2.09,0-4.17,0-6.26,0Z"/></g></svg>