<svg id="Layer_1" data-name="Layer 1" xmlns="http://www.w3.org/2000/svg" viewBox="0 0 46.49 46.49"><defs><style>.cls-1{fill:#070707;}</style></defs><g id="FrIFEj.tif"><path class="cls-1" d="M23.67,36.42l-5.13-17.1H28.88l-5.13,17.1Z"/><path class="cls-1" d="M21.42,35.36l-12.83-16,.25,0h7.57a.3.3,0,0,1,.34.26L21.41,35.1l.06.24Z"/><path class="cls-1" d="M38.85,19.3,26,35.37l-.06,0,.21-.73q2.25-7.47,4.48-14.95a.43.43,0,0,1,.5-.37c2.45,0,4.89,0,7.33,0Z"/><path class="cls-1" d="M18.63,17.51l.7-1.87,1.72-4.59a.31.31,0,0,1,.35-.26q2.31,0,4.62,0a.31.31,0,0,1,.35.23c.77,2.09,1.56,4.18,2.34,6.27,0,.07,0,.13.07.22Z"/><path class="cls-1" d="M8.89,17.51l.24-.26,6-6a1.32,1.32,0,0,1,1-.42c.92,0,1.83,0,2.75,0h.32c-.26.71-.52,1.39-.77,2.07q-.84,2.2-1.66,4.42a.29.29,0,0,1-.31.23H8.89Z"/><path class="cls-1" d="M28.21,10.81h3.11a1.09,1.09,0,0,1,.85.33l6.21,6.21.13.16-.22,0H31c-.16,0-.27,0-.33-.2L28.26,11C28.24,10.94,28.23,10.89,28.21,10.81Z"/></g></svg>