<?xml version="1.0" encoding="utf-8"?>
<!-- Generator: Adobe Illustrator 25.4.0, SVG Export Plug-In . SVG Version: 6.00 Build 0)  -->
<svg version="1.1" id="Layer_1" xmlns="http://www.w3.org/2000/svg" xmlns:xlink="http://www.w3.org/1999/xlink" x="0px" y="0px"
	 viewBox="0 0 18.5 18.5" style="enable-background:new 0 0 18.5 18.5;" xml:space="preserve">
<g id="zqx7Gq.tif">
	<path d="M4.4,4.3c3.2-0.9,6.5-0.9,9.7,0c-0.8-0.6-1.7-1.1-2.6-1.4l0.4-1c0.4,0.2,0.7,0.3,1.1,0.5c1,0.4,1.9,1,2.7,1.8
		c0.2,0.2,0.4,0.5,0.5,0.7c0.8,1.7,1.4,3.4,1.7,5.3c0.2,1.2,0.3,2.4,0.5,3.7c0,0.1,0,0.2-0.1,0.3c-0.7,0.9-1.7,1.6-2.8,2
		c-0.8,0.2-1.5,0.4-2.3,0.4c-0.1,0-0.1,0-0.2,0c-0.3-0.4-0.6-0.9-0.9-1.4c1.1-0.3,2.2-0.8,3.1-1.4l-0.6-0.8C11.3,15,7.2,15,4,12.9
		l-0.6,0.9c0.9,0.6,2,1.1,3.1,1.4l-0.1,0.1c-0.3,0.4-0.6,0.8-0.8,1.2c0,0.1-0.1,0.1-0.2,0.1C3.8,16.6,2.2,16,1,15
		c-0.3-0.3-0.5-0.5-0.7-0.8c0-0.1-0.1-0.1-0.1-0.2c0.1-1.8,0.4-3.6,0.8-5.3c0.3-1.2,0.7-2.3,1.2-3.4C2.6,4.5,3,4,3.6,3.6
		c0.9-0.7,2-1.3,3.1-1.7l0.4,1C6.1,3.2,5.2,3.7,4.4,4.3z M5.7,9.2v1.7h1V9.2H5.7z M12.7,10.9V9.2h-1v1.7H12.7z"/>
</g>
</svg>
