<?xml version="1.0" encoding="utf-8"?>
<!-- Generator: Adobe Illustrator 25.4.0, SVG Export Plug-In . SVG Version: 6.00 Build 0)  -->
<svg version="1.1" id="Layer_1" xmlns="http://www.w3.org/2000/svg" xmlns:xlink="http://www.w3.org/1999/xlink" x="0px" y="0px"
	 viewBox="0 0 18.5 18.5" style="enable-background:new 0 0 18.5 18.5;" xml:space="preserve">
<g id="pR0lVD.tif">
	<path d="M13.7,3.2h-1.5c-0.2,0-0.3,0-0.5,0c-0.6,0-1.1,0.5-1.1,1.1c0,0,0,0,0,0c0,0.9,0,1.7,0,2.6l0,0h2.9l-0.4,3.3h-2.5v8.1H7.3
		v-8.1H4.7V7h2.6V6.8c0-0.9,0-1.9,0-2.8c0-1.1,0.5-2.2,1.4-2.9c0.7-0.6,1.5-0.9,2.4-0.9c0.9,0,1.7,0.1,2.6,0.1h0.1L13.7,3.2z"/>
</g>
</svg>
