<svg id="Layer_1" data-name="Layer 1" xmlns="http://www.w3.org/2000/svg" viewBox="0 0 18.83 18.82"><g id="tdNTRD.tif"><path d="M4.25,1.84a1.78,1.78,0,0,1,1.49.62.27.27,0,0,0,.39.06,7.22,7.22,0,0,1,.81-.33A.18.18,0,0,0,7.09,2,1.85,1.85,0,0,1,7.42.72,1.67,1.67,0,0,1,8.79,0a9.91,9.91,0,0,1,1.54,0,1.63,1.63,0,0,1,1.39,1.59c0,.38.09.59.47.67a1.83,1.83,0,0,1,.54.23.23.23,0,0,0,.33,0,1.71,1.71,0,0,1,1-.62,1.62,1.62,0,0,1,1.46.39,13.75,13.75,0,0,1,1,1,1.73,1.73,0,0,1-.07,2.35c-.28.29-.27.29-.11.66.09.22.18.45.26.68s.08.13.18.13a3.08,3.08,0,0,1,.61,0,1.72,1.72,0,0,1,1.39,1.64,10.84,10.84,0,0,1,0,1.51,1.67,1.67,0,0,1-1.66,1.45c-.42,0-.42,0-.58.4a4.85,4.85,0,0,1-.27.62.2.2,0,0,0,.05.28A1.85,1.85,0,0,1,17,14.08a1.66,1.66,0,0,1-.4,1.48c-.29.33-.6.63-.92.93a1.72,1.72,0,0,1-2.43,0c-.29-.27-.29-.27-.65-.11a6,6,0,0,1-.66.26c-.12,0-.17.09-.16.22A1.76,1.76,0,0,1,11.46,18a1.53,1.53,0,0,1-1.17.77,9.41,9.41,0,0,1-1.76,0,1.65,1.65,0,0,1-1.44-1.66c0-.41,0-.41-.39-.57a4.59,4.59,0,0,1-.64-.28.18.18,0,0,0-.26,0A1.83,1.83,0,0,1,4.73,17a1.65,1.65,0,0,1-1.47-.4c-.33-.3-.65-.63-1-1a1.67,1.67,0,0,1,0-2.35c.25-.25.31-.44.12-.74a3.3,3.3,0,0,1-.26-.64A.16.16,0,0,0,2,11.73a3,3,0,0,1-.6,0A1.7,1.7,0,0,1,0,10a10.7,10.7,0,0,1,0-1.5A1.68,1.68,0,0,1,1.71,7.09c.42,0,.41,0,.57-.4.09-.22.18-.43.28-.64s0-.17,0-.25a1.87,1.87,0,0,1-.65-1.06,1.64,1.64,0,0,1,.4-1.47c.31-.35.65-.68,1-1A1.53,1.53,0,0,1,4.25,1.84Zm5.18-.73c-.19,0-.38,0-.57,0a.61.61,0,0,0-.66.65c0,.25,0,.5,0,.75a.55.55,0,0,1-.44.58,6.75,6.75,0,0,0-1.62.67.55.55,0,0,1-.75-.11l-.52-.51a.6.6,0,0,0-.91,0c-.28.26-.54.53-.81.8a.62.62,0,0,0,0,.92l.52.52a.55.55,0,0,1,.1.76A6.51,6.51,0,0,0,3.1,7.73a.57.57,0,0,1-.62.46H1.75a.62.62,0,0,0-.64.64V10a.62.62,0,0,0,.66.66c.25,0,.49,0,.74,0a.54.54,0,0,1,.58.45,7,7,0,0,0,.67,1.6.57.57,0,0,1-.11.77c-.17.17-.35.34-.52.52a.62.62,0,0,0,0,.9c.27.28.54.55.82.82a.62.62,0,0,0,.9,0l.52-.52a.57.57,0,0,1,.77-.11,7,7,0,0,0,1.6.67.56.56,0,0,1,.46.6c0,.25,0,.5,0,.75a.6.6,0,0,0,.63.63H10a.62.62,0,0,0,.64-.65v-.75a.56.56,0,0,1,.44-.58,6.75,6.75,0,0,0,1.62-.67.56.56,0,0,1,.75.1l.52.52a.62.62,0,0,0,.92,0l.8-.8a.62.62,0,0,0,0-.92c-.17-.18-.35-.34-.52-.52a.55.55,0,0,1-.1-.76,6.93,6.93,0,0,0,.66-1.59.56.56,0,0,1,.61-.46h.74a.62.62,0,0,0,.64-.64V8.85a.64.64,0,0,0-.67-.66h-.73a.56.56,0,0,1-.59-.45,6.82,6.82,0,0,0-.66-1.61.55.55,0,0,1,.1-.76l.51-.5a.62.62,0,0,0,0-.93l-.79-.8a.62.62,0,0,0-.93,0c-.18.17-.35.35-.52.52a.56.56,0,0,1-.75.1,7.11,7.11,0,0,0-1.61-.67.55.55,0,0,1-.45-.6V1.73A.61.61,0,0,0,10,1.11C9.81,1.1,9.62,1.11,9.43,1.11Z" transform="translate(0 0)"/><path d="M9.42,13.5A4.09,4.09,0,1,1,13.5,9.4,4.09,4.09,0,0,1,9.42,13.5Zm0-1.1a3,3,0,1,0-3-3A3,3,0,0,0,9.42,12.4Z" transform="translate(0 0)"/></g></svg>