<svg id="Layer_1" data-name="Layer 1" xmlns="http://www.w3.org/2000/svg" viewBox="0 0 15.95 15.95"><g id="Cvi5nz.tif"><path d="M0,8a8,8,0,1,1,8,8A8,8,0,0,1,0,8Zm8,6.86A6.86,6.86,0,1,0,1.12,8,6.86,6.86,0,0,0,8,14.83Z" transform="translate(0 0)"/><path d="M7.81,4a3,3,0,0,1,1.31.26,1.63,1.63,0,0,1,.77,2.33,3.38,3.38,0,0,1-.9,1l-.27.24a1.09,1.09,0,0,0-.36.8,2.53,2.53,0,0,0,0,.28A.4.4,0,0,1,8,9.34a1.35,1.35,0,0,1-.35,0,.45.45,0,0,1-.47-.48,2.05,2.05,0,0,1,.87-2A3.52,3.52,0,0,0,8.6,6.4a.75.75,0,0,0,.17-.69A.77.77,0,0,0,8,5.18a1.11,1.11,0,0,0-1.16.51.48.48,0,0,1-.67.24.57.57,0,0,1-.37-.65,1.44,1.44,0,0,1,.83-1A2.49,2.49,0,0,1,7.81,4Z" transform="translate(0 0)"/><path d="M8.55,10.9a.81.81,0,0,1-1.61,0,.8.8,0,0,1,.79-.82A.82.82,0,0,1,8.55,10.9Z" transform="translate(0 0)"/></g></svg>