<?xml version="1.0" encoding="utf-8"?>
<!-- Generator: Adobe Illustrator 25.4.0, SVG Export Plug-In . SVG Version: 6.00 Build 0)  -->
<svg version="1.1" id="Layer_1" xmlns="http://www.w3.org/2000/svg" xmlns:xlink="http://www.w3.org/1999/xlink" x="0px" y="0px"
	 viewBox="0 0 18.5 18.5" style="enable-background:new 0 0 18.5 18.5;" xml:space="preserve">
<g id="oRoJa6.tif">
	<path d="M9.2,18.3c-1.3,0-2.7,0-4-0.1c-1.4,0-2.7-0.6-3.6-1.5c-0.7-0.8-1.2-1.7-1.3-2.8C0.2,13,0.2,12,0.2,11.1c0-1.8,0-3.5,0-5.2
		c0-0.9,0.2-1.7,0.5-2.5C1.2,1.8,2.5,0.7,4,0.4C5,0.2,5.9,0.1,6.8,0.2c1.9,0,3.8,0,5.7,0c0.9,0,1.7,0.1,2.5,0.4
		c1.5,0.5,2.7,1.8,3,3.4c0.2,0.7,0.2,1.3,0.2,2c0,2.1,0,4.2,0,6.3c0,0.9-0.1,1.8-0.4,2.7c-0.5,1.6-1.9,2.8-3.6,3.1
		c-1,0.2-2,0.2-3,0.2L9.2,18.3L9.2,18.3z M9.2,16.7L9.2,16.7c0.5,0,0.9,0,1.4,0c1,0,2.1,0,3.1-0.1c1.3-0.1,2.4-1.1,2.7-2.4
		c0.1-0.6,0.2-1.1,0.2-1.7c0-1.8,0-3.6,0-5.5c0-0.7,0-1.5-0.1-2.2c-0.1-1.4-1.2-2.5-2.5-2.7c-0.6-0.1-1.3-0.2-1.9-0.2
		c-1.7,0-3.4,0-5.1,0c-0.8,0-1.6,0-2.4,0.1C3.3,2.2,2.2,3.2,2,4.5C1.9,5.1,1.8,5.7,1.8,6.3c0,1.5,0,2.9,0,4.4c0,1,0,2,0.1,3
		c0.1,1.1,0.7,2,1.7,2.5c0.5,0.3,1.1,0.4,1.7,0.4C6.6,16.6,7.9,16.6,9.2,16.7z"/>
	<path d="M9.2,13.9c-2.6,0-4.6-2.1-4.6-4.7s2.1-4.6,4.7-4.6c2.5,0,4.6,2.1,4.6,4.6C13.9,11.8,11.8,13.9,9.2,13.9
		C9.2,13.9,9.2,13.9,9.2,13.9z M9.2,12.2c1.7,0,3-1.3,3-3c0-1.7-1.3-3-3-3c-1.6,0-3,1.3-3,2.9C6.2,10.8,7.5,12.2,9.2,12.2
		C9.2,12.2,9.2,12.2,9.2,12.2z"/>
	<path d="M14.1,3.3c0.6-0.1,1.1,0.4,1.2,1s-0.4,1.1-1,1.2c-0.1,0-0.1,0-0.2,0C13.5,5.5,13,5,13,4.4c0,0,0,0,0,0
		C13,3.8,13.5,3.3,14.1,3.3C14.1,3.3,14.1,3.3,14.1,3.3z"/>
</g>
</svg>
