<?xml version="1.0" encoding="utf-8"?>
<!-- Generator: Adobe Illustrator 25.4.0, SVG Export Plug-In . SVG Version: 6.00 Build 0)  -->
<svg version="1.1" id="Layer_1" xmlns="http://www.w3.org/2000/svg" xmlns:xlink="http://www.w3.org/1999/xlink" x="0px" y="0px"
	 viewBox="0 0 18.5 18.5" style="enable-background:new 0 0 18.5 18.5;" xml:space="preserve">
<g id="_5HXgqG.tif">
	<path d="M0.2,9.2V1.6C0.1,0.9,0.7,0.2,1.4,0.2c0.1,0,0.2,0,0.2,0h15.3c0.7-0.1,1.4,0.5,1.4,1.2c0,0.1,0,0.2,0,0.2v15.2
		c0.1,0.7-0.5,1.4-1.2,1.4c-0.1,0-0.2,0-0.2,0H1.6c-0.7,0-1.3-0.4-1.4-1.1c0-0.1,0-0.2,0-0.3V9.2z M7.8,7.2v6.6H10v-1.7
		c0-0.7,0-1.4,0-2.2c0-0.4,0.2-0.7,0.6-0.9c0.5-0.3,1.1-0.2,1.5,0.2c0.1,0.1,0.1,0.2,0.2,0.4c0.1,0.3,0.1,0.5,0.1,0.8
		c0,1.1,0,2.2,0,3.3v0.2h2.2c0-0.1,0-0.1,0-0.1c0-1.2,0-2.4,0-3.6c0-0.2,0-0.5,0-0.7c-0.1-1.2-1-2.2-2.2-2.3C11.5,7,10.6,7.3,10.1,8
		c0,0,0,0-0.1,0.1V7.2L7.8,7.2z M6.6,13.9c0,0,0-0.1,0-0.1V7.4c0-0.1,0-0.2-0.2-0.2H4.6H4.4v6.6L6.6,13.9z M5.5,4
		C5,4,4.5,4.3,4.3,4.8C4.1,5.4,4.5,6.1,5.1,6.3c0,0,0,0,0,0c0.6,0.2,1.4-0.1,1.6-0.7C6.9,4.9,6.6,4.3,6,4.1C5.8,4,5.7,4,5.5,4z"/>
</g>
</svg>
