<?xml version="1.0" encoding="utf-8"?>
<!-- Generator: Adobe Illustrator 25.4.0, SVG Export Plug-In . SVG Version: 6.00 Build 0)  -->
<svg version="1.1" id="Layer_1" xmlns="http://www.w3.org/2000/svg" xmlns:xlink="http://www.w3.org/1999/xlink" x="0px" y="0px"
	 viewBox="0 0 43.6 42.6" style="enable-background:new 0 0 43.6 42.6;" xml:space="preserve">
<g id="OW7Dev.tif">
	<path d="M14.3,32.1c0.1-0.1,0.2-0.1,0.2-0.2c0.8-1.5,1.6-2.9,2.5-4.4c2.3-4.2,4.7-8.5,7-12.7l0.2-0.3l1.7,1L14.5,32.1
		c0.2,0.1,0.2,0,0.3-0.1l2.5-3.5l9-12.6c0-0.1,0.1-0.1,0.1-0.2c0.3,0.1,0.5,0.3,0.6,0.5c0.1,0.2,0.1,0.4,0.2,0.6
		c0.1,0.2,0.1,0.4-0.1,0.5L14.9,32l-0.2,0.2c0.8,0.4,1.3,1.1,1.3,2c0,0.8-0.3,1.6-0.8,2.2l0.1,0.1c0.2-0.1,0.4-0.2,0.5-0.4
		c1-1,1-2.6,0.1-3.7c-0.1-0.1-0.2-0.2-0.3-0.3c1.1-1,2.7-1.1,4-0.3c0.9,0.5,1.5,1.4,1.6,2.4c0.2,1-0.1,1.9-0.6,2.7
		c0.1-0.1,0.2-0.2,0.3-0.3c0.5-0.5,0.8-1.2,0.9-1.9c0-0.2,0.1-0.3,0.3-0.3c1.4-0.1,2.6,0.9,2.8,2.3c0,0.1,0,0.1,0,0.2
		c0,0.5,0,1,0,1.5c0.3-0.3,0.5-0.7,0.5-1.2c0-0.2,0-0.5,0-0.7c0-0.2,0.1-0.3,0.2-0.4c0.6-0.4,1.4-0.3,2,0.2c0.3,0.3,0.6,0.6,0.9,1
		c0-0.5-0.2-1-0.5-1.4c-0.1-0.1-0.2-0.3-0.1-0.5c0.4-1.4,1.9-2.3,3.4-1.8c0.7,0.2,1.3,0.7,1.6,1.4l0.1,0.3
		c6.7-3.7,10.6-10.9,10.2-18.5c2.1,11.8-5.7,23.2-17.6,25.3S2.5,36.5,0.4,24.6C-1.5,14.4,4.2,4.3,13.9,0.5C8.5,3.4,4.8,8.6,3.7,14.6
		c-0.2,0.9-0.2,1.9-0.3,2.8c0,0.1,0,0.3,0.2,0.3c0,0,0,0,0,0c1.3,0.5,1.9,2,1.4,3.2c-0.2,0.4-0.4,0.8-0.8,1l-0.3,0.2
		c0.3-0.1,0.6-0.2,0.9-0.5c0.1-0.1,0.2-0.1,0.3-0.1c1,0.1,1.9,0.7,2.3,1.7c0.4,0.9,0.2,2-0.5,2.8c-0.5,0.6-1.1,1.1-1.8,1.4v0.1
		c0.2,0,0.5-0.1,0.7-0.2c0.4-0.1,0.7-0.4,1-0.5c0.1,0,0.2,0,0.4,0c0.6,0.3,1,0.9,1,1.5v0.2c0.4-0.2,0.9-0.3,1.3-0.5
		c1.9-0.4,3.8,0.9,4.2,2.8c0,0.1,0,0.2,0.1,0.4c0,0.1,0,0.2-0.2,0.3c0,0,0,0,0,0c-0.7,0.2-1.2,0.7-1.5,1.3l0.2-0.2
		c0.4-0.4,1-0.7,1.6-0.7c0.2,0,0.3-0.1,0.4-0.2l7.6-17.3c0.1-0.2,0.2-0.3,0.4-0.3c0.4,0,0.8-0.1,1.3-0.2L14.3,32.1L14.3,32.1z"/>
	<path d="M34.3,3.5c0,2.4-0.8,4.8-2.2,6.8c-1.2,1.8-2.7,3.3-4.5,4.6c-0.1,0-0.2,0-0.3,0c-1.1-0.6-2.1-1.2-3.2-1.8
		c-0.1,0-0.1-0.1-0.1-0.2c0.2-3.5,1.5-6.8,3.6-9.5c1.4-1.7,3.4-2.9,5.6-3.3c0.2,0,0.3,0,0.4,0.2C34.1,1.3,34.3,2.3,34.3,3.5z
		 M31.8,7.2c0-1.2-1-2.2-2.2-2.2c-1.2,0-2.2,1-2.2,2.2c0,1.2,1,2.2,2.2,2.2c0,0,0,0,0,0C30.8,9.5,31.8,8.5,31.8,7.2
		C31.8,7.2,31.8,7.2,31.8,7.2z M32.6,5.6C33.2,5,33.3,4.2,33,3.5c-0.3-0.8-1.1-1.3-2-1.2c-0.7,0.1-1.4,0.6-1.6,1.3
		c0.9-0.8,1.8-1,2.5-0.5C32.8,3.5,33,4.2,32.6,5.6z M28.1,10.2C28,10.1,28,10,28,10c-0.1,0-0.1,0-0.2,0c0,0-0.1,0.1-0.1,0.1
		c-0.5,0.9-1,1.8-1.5,2.7c0,0,0,0.1,0,0.1c0,0.1,0,0.2,0.1,0.3c0,0,0.2,0,0.2-0.1s0.1-0.1,0.1-0.1l1.4-2.6
		C28,10.4,28,10.3,28.1,10.2z"/>
	<path d="M31.1,12.2c0.3,0.6,0.5,1.3,0.5,1.9c0,0.3-0.1,0.6-0.2,0.9c-0.6,1.2-1.3,2.4-2,3.6l-0.1-0.2c-0.4-1-0.8-2.1-1.2-3.1
		c0-0.1-0.1-0.2,0.1-0.3C29.3,14.1,30.2,13.2,31.1,12.2L31.1,12.2z"/>
	<path d="M23.6,12.5l-3.7,0.6l0.1-0.3c0.6-1,1.2-2,1.7-3c0.3-0.7,1-1.2,1.8-1.3c0.3-0.1,0.6-0.1,1-0.2L23.6,12.5z"/>
	<path d="M13.3,21.9h0.3l-0.1-0.3c0.2,0,0.4,0.2,0.4,0.5c0.3-0.1,0.3-0.1,0.5,0.2l0.1,0.4c0.2,0.6,0,0.9-0.6,1c-0.3,0-0.6,0.2-0.9,0
		c-0.1-0.1-0.2-0.1-0.1-0.3c-0.2,0-0.3,0-0.1,0.2c0.2,0.2,0.4,0.3,0.7,0.3c0.2,0,0.3,0,0.5,0V24c-0.4,0.1-0.9,0.3-1.3,0.4
		c-0.5,0.1-0.9,0-1.4-0.2l0.9-0.1c-0.5,0-1.1,0-1.6-0.2c-0.1,0-0.2-0.1-0.2-0.1c-0.1-0.1-0.1-0.2,0-0.3c0.3-0.2,0.7-0.3,1-0.2
		l0.8,0.2c0.1-0.5-0.2-0.8-0.4-1.2L13,22l0.1,0L13.3,21.9z"/>
	<path d="M20.7,30.1c0,0,0.1-0.1,0.2-0.1s0.2,0,0.3,0c-0.4,0-0.8,0-1.2-0.3c0.2-0.3,0.5-0.3,0.7-0.3h-0.5c-0.1-0.2-0.1-0.3-0.2-0.5
		c-0.1-0.2,0-0.5,0.2-0.6c0.2-0.2,0.2-0.4,0-0.6l0.4-0.2l0.1,0.7c0.1-0.1,0.2-0.2,0.4-0.2c0.3-0.2,0.7-0.1,0.9,0.2
		c0.1,0.2,0.3,0.4,0.6,0.4l0,0c0.1,0.2,0.2,0.5,0.2,0.8c0,0.2-0.2,0.4-0.5,0.4l0.1,0.2c-0.5,0.1-1,0.5-1.6,0.2
		C20.9,30.1,20.7,30.1,20.7,30.1L20.7,30.1z M21.4,28.1c-0.1,0.1-0.2,0.3-0.3,0.4c0,0,0,0.1,0.1,0.2l0.7-0.2L21.4,28.1z M21.8,29.7
		l0.2-0.2h-0.6l0-0.3l-0.2,0.3L21.8,29.7z"/>
	<path d="M34.6,26.9c0,0,0.1-0.1,0.1-0.2c0.4-0.1,0.9-0.2,1.3-0.3c0.1,0,0.2,0,0.3,0l-0.1-0.4c0.2,0.1,0.3,0.2,0.4,0.5l0.3-0.1
		c0.1,0.4,0.2,0.7,0.3,1.1c0,0.4-0.2,0.7-0.6,0.7c0,0,0,0,0,0c-0.2,0-0.3,0-0.5,0.1c-0.3,0.1-0.5-0.1-0.6-0.3h0.2h0.1l0.1-0.4l0,0
		l-0.2,0.3h-0.8C34.9,27.5,34.7,27.2,34.6,26.9L34.6,26.9z"/>
	<path d="M34.6,27.9l0.6,0.1c0.1,0,0.2,0.1,0.2,0.1c0.2,0.2,0.5,0.3,0.8,0.3c0.1,0,0.3,0,0.4,0.1c-0.4,0.1-0.9,0.3-1.3,0.4
		c-0.5,0.1-1,0-1.4-0.2v-0.1h0.8v-0.1c-0.2,0-0.5,0-0.7,0c-0.3,0-0.7-0.1-1-0.2c-0.2-0.1-0.2-0.2,0-0.4c0.3-0.2,0.7-0.3,1-0.1
		L34.6,27.9L34.6,27.9z"/>
	<path d="M34.6,27.9c-0.4-0.2-0.9-0.3-1.3-0.2c-0.1-0.3-0.2-0.6-0.2-0.9c0-0.4,0.2-0.8,0.7-0.9l0.3,1l0.7,1L34.6,27.9L34.6,27.9z"/>
	<path d="M11.1,21.5c0,0.1,0,0.3,0.1,0.4c0.1,0.5,0.4,1,0.9,1.3c0.1,0,0.1,0.1,0.2,0.2c-0.6-0.1-1-0.4-1.5-0.2
		c-0.1-0.3-0.2-0.6-0.2-0.9C10.4,21.9,10.7,21.5,11.1,21.5L11.1,21.5z"/>
	<path d="M9.2,13.2c0-0.1,0-0.2,0-0.2s0.3-0.1,0.4,0c0.1,0.2,0.2,0.3,0.3,0.5l0.1,0.2h0.1L10,13.3c0.2,0.1,0.3,0.1,0.4,0.2
		c0.1,0.1,0.1,0.3,0,0.5c-0.2,0.3-0.6,0.5-1,0.5l0,0l-0.2-0.3l0.1-0.3l0.3-0.1H9.3l0,0h0.3l-0.4-0.1l0.1-0.4L9.2,13.2z"/>
	<path d="M27.7,26.9c-0.2,0-0.3-0.1-0.5-0.1c-0.1,0-0.1-0.2-0.1-0.2s0.1-0.2,0.1-0.3c-0.3-0.1-0.1-0.3-0.1-0.5l0,0
		c0-0.1,0.1-0.3,0.1-0.3c0.1,0,0.2,0,0.3,0.1c0.1,0.2,0.2,0.4,0.3,0.5l0-0.3c0.1,0.1,0.3,0.1,0.4,0.2c0.1,0.1,0.1,0.3,0,0.4
		c0,0,0,0,0,0l-0.4,0.4L27.7,26.9z"/>
	<path d="M34,26.9l-0.3-1c0-0.1-0.1-0.2,0-0.3s0-0.3-0.3-0.4l0.7-0.3c0.1,0.4,0.1,0.7,0.1,1.1c0,0.2,0,0.3,0.1,0.3l0.2,0.2l0,0
		l0.2,0.4l0,0l0.1,0.4l0.1,0.3l-0.1,0.1l-0.5-0.5C34.2,27.1,34.1,27,34,26.9z"/>
	<path d="M11.1,21.5L11.1,21.5c0-0.1-0.1-0.2-0.1-0.3s0-0.4-0.3-0.5c0.2-0.1,0.4-0.2,0.5-0.2s0.2,0,0.2,0.1c0,0.3,0.1,0.6,0.1,0.9
		c0,0-0.1,0.1-0.1,0.2l0.2,0.1v0.1c0.2,0.3,0.3,0.7,0.5,1l0.1,0.3c-0.5-0.3-0.9-0.8-1-1.4C11.1,21.7,11.1,21.6,11.1,21.5z"/>
	<path d="M11.6,21.9L11.6,21.9c-0.1-0.2,0-0.4,0.2-0.5l0.2-0.1c0.4-0.4,1-0.3,1.4,0.1c0.1,0.2,0.2,0.4,0.2,0.6l-0.2,0.1h-0.2
		L13,21.6c0.1-0.3-0.1-0.2-0.3-0.2l0.1,0.1l-0.2,0.2h-0.1v-0.4l-0.1,0.1c-0.2-0.2-0.3,0-0.4,0.2L11.7,22L11.6,21.9z"/>
	<path d="M34.4,26.5l-0.2-0.2c-0.1-0.2,0-0.5,0.2-0.6c0.3-0.3,0.6-0.4,1-0.3c0.4,0.1,0.7,0.5,0.8,0.9H36l-0.3-0.5l0,0l-0.1-0.1
		l-0.3,0.3l-0.1-0.2H35c-0.1,0-0.2,0.1-0.2,0.2C34.6,26.2,34.5,26.4,34.4,26.5z"/>
	<path d="M15.9,14.4c0-0.1,0.1-0.2,0.1-0.2c0.1,0,0.2,0,0.3,0.1c0.1,0.1,0.2,0.3,0.3,0.4v-0.2c0.1,0,0.2,0,0.3,0.1
		C17,14.7,17,14.8,17,15c-0.1,0.2-0.3,0.3-0.4,0.5H16c-0.2-0.2-0.2-0.4,0-0.5l-0.2-0.1H16c-0.1,0-0.3-0.1-0.2-0.3L15.9,14.4z"/>
	<path d="M27.7,26.9l0.2-0.1l0.4,0.1c-0.1,0.2-0.2,0.4-0.3,0.6c0,0.1-0.1,0.1-0.2,0.1c-0.5,0.1-1-0.1-1.4-0.5l1.4,0.2l-0.3-0.2
		L27.7,26.9z"/>
	<path d="M27.1,25.8L27.1,25.8L27,26.6c-0.2-0.1-0.4-0.3-0.5-0.5v0.2l0,0l-0.3-0.1l0.3-0.1v-0.1h-0.2l0.1-0.6L27.1,25.8z"/>
	<path d="M9.2,13.2L9.2,13.2c-0.3,0.3,0,0.7-0.2,1c-0.3-0.2-0.3-0.1-0.5-0.7l0,0l-0.3-0.1l0.1-0.6L9.2,13.2z"/>
	<path d="M16.5,15.4H17c-0.1,0.5-0.6,0.7-1.1,0.6c-0.2-0.1-0.4-0.2-0.5-0.4l0.5,0.1l0.6,0.1C16.1,15.5,16.5,15.5,16.5,15.4z"/>
	<path d="M15.9,14.4v0.2l-0.1,0.6h-0.2L15.5,15l-0.3-0.1l0.1-0.2c-0.2-0.2,0-0.4-0.1-0.6L15.9,14.4z"/>
	<path d="M10.1,14.9c0,0.3-0.2,0.3-0.4,0.3c-0.5,0-0.9-0.2-1.2-0.6l1.5,0.2L10.1,14.9z"/>
	<path d="M8.2,15.4L8.6,15h0.1c0,0.1-0.1,0.2-0.1,0.3l-0.1,0.3C8,16,7.6,16.5,7.1,17c-0.1,0.1-0.3,0.2-0.4,0.2
		C7.3,16.8,7.9,16.1,8.2,15.4L8.2,15.4z"/>
	<path d="M34.4,26.5c0.1-0.2,0.3-0.3,0.4-0.5c0.1-0.1,0.2-0.1,0.2-0.2l0.4,0.5l0,0c0,0,0,0.1-0.1,0.1c-0.2,0.1-0.5,0.1-0.7,0.2
		C34.5,26.7,34.5,26.6,34.4,26.5L34.4,26.5z"/>
	<path d="M11.8,21.9l0.3-0.4l0.2-0.2l0.5,0.6l-1,0.2L11.8,21.9z"/>
	<path d="M26.3,27.9c-0.1,0.2-0.3,0.5-0.5,0.7c-0.3,0.3-0.6,0.6-0.9,0.9c-0.1,0.1-0.2,0.1-0.3,0.1c0.6-0.5,1.1-1.1,1.5-1.8l0,0
		l0.3-0.4h0L26.3,27.9L26.3,27.9z"/>
	<path d="M12,25.5c-0.2-0.4-0.5-0.6-0.5-1.1c0.1,0,0.2,0.1,0.4,0.1c0.2,0,0.2,0.1,0.2,0.2S12,25.2,12,25.5z"/>
	<path d="M34.6,30c-0.3-0.3-0.4-0.7-0.4-1.1h0.3c0.3,0.1,0.3,0.1,0.3,0.4c0,0.1,0,0.2,0,0.3c0,0.1,0,0.2,0,0.3L34.6,30z"/>
	<path d="M10.5,24.7l0.2-0.3c0.2-0.4,0.2-0.4,0.6-0.1l0.1,0.1C11.2,24.7,10.8,24.6,10.5,24.7z"/>
	<path d="M34.1,29l-0.9,0.3c0.1-0.2,0.2-0.4,0.3-0.6c0.1,0,0.1-0.1,0.2-0.1c0.1,0.1,0.3,0.1,0.4,0.2L34.1,29z"/>
	<path d="M8.8,14.4L9,14.6l0,0c-0.2,0-0.3,0-0.5,0c-0.2-0.1-0.3-0.2-0.5-0.3l0.2-0.5l0.2,0.1l-0.1,0.1L8.8,14.4L8.8,14.4z"/>
	<path d="M15.3,16.1c-0.3,0.4-0.7,0.9-1,1.3c-0.1,0.2-0.3,0.3-0.5,0.4c0.5-0.4,0.9-0.9,1.2-1.5l0,0l0.4-0.5
		C15.4,15.9,15.4,16,15.3,16.1L15.3,16.1z"/>
	<path d="M26.6,26.8l0.3,0.2c-0.4,0.1-0.7-0.1-1-0.3l0.2-0.4l0.2,0.1v0.3l0.1-0.1L26.6,26.8L26.6,26.8z"/>
	<path d="M10.1,14.9H10l-0.4-0.2c0.3-0.2,0.5-0.4,0.8-0.1L10.1,14.9z"/>
	<path d="M9.4,14.5l0.1,0.1l-0.8-0.2l0,0c0-0.1-0.1-0.3-0.1-0.4c-0.1-0.1-0.2-0.2-0.3-0.3l0.3-0.2l0,0C8.6,14,9,14.4,9.4,14.5
		L9.4,14.5z"/>
	<path d="M15.5,15.4l0.2,0.1c-0.3,0.1-0.6,0-0.8-0.3l0.2-0.4c0.1,0.1,0.2,0.1,0.2,0.1C15.2,15.2,15.4,15.3,15.5,15.4L15.5,15.4z"/>
	<path d="M11.5,24.6l-0.7,1C10.8,25.1,11.1,24.8,11.5,24.6z"/>
	<path d="M34.1,29.1L33.5,30C33.4,29.8,33.8,29.3,34.1,29.1z"/>
	<path d="M21.1,30.8l-0.3-0.6C21.3,30.2,21.3,30.3,21.1,30.8z"/>
	<path d="M26.5,26.3l0.8,0.8l-0.7-0.2l0,0C26.6,26.6,26.5,26.4,26.5,26.3L26.5,26.3z"/>
	<path d="M8.4,15.6l0.1-0.3c0.1-0.1,0.2-0.3,0.4-0.1l-0.6,0.7L8.4,15.6z"/>
	<path d="M13,21.6l0.1,0.3L13,22l-0.4-0.2C12.8,21.6,12.8,21.4,13,21.6z"/>
	<path d="M8.2,15.4L8.2,15.4c-0.2,0.2-0.5,0.2-0.7,0.1l0.8-0.4L8.2,15.4z"/>
	<path d="M20.7,30.1L20.7,30.1l-0.1,0.2l0,0l-0.5,0.1l0.2-0.4L20.7,30.1z"/>
	<path d="M9.1,15.3c0.6-0.1,0.3,0.3,0.5,0.5H9.5L9.1,15.3z"/>
	<path d="M26.3,27.9L26.3,27.9c0.1-0.1,0.1-0.2,0.2-0.3c0.1-0.2,0.1-0.2,0.3-0.1l-0.6,0.6L26.3,27.9z"/>
	<path d="M26.1,27.8L26.1,27.8c-0.2,0.1-0.4,0.2-0.6,0.1v-0.1l0.7-0.3L26.1,27.8z"/>
	<path d="M15.5,14.9l0.1,0.2l0.5,0.3l0,0l0.1,0.1l-0.6-0.2l0,0C15.5,15.2,15.3,15.1,15.5,14.9z"/>
	<path d="M33.3,28.6c-0.2,0.2-0.6,0.2-0.8,0c0,0,0,0,0,0H33.3z"/>
	<path d="M10.6,24c-0.2,0.2-0.6,0.2-0.8,0c0,0,0,0,0,0H10.6z"/>
	<path d="M35.7,25.9c0,0.1,0,0.1,0.1,0.2c0,0.1,0,0.2,0,0.3h-0.3l0,0l0-0.2h0.3L35.7,25.9L35.7,25.9z"/>
	<path d="M26.3,27.2l-0.7-0.4C25.9,26.8,26.2,26.9,26.3,27.2z"/>
	<path d="M7.7,14.3l0.7,0.4l-0.1,0.1L7.7,14.3L7.7,14.3z"/>
	<path d="M27.3,28.1L27,27.6C27.4,27.7,27.5,27.8,27.3,28.1z"/>
	<path d="M15.3,16.1L15.3,16.1c0.1-0.2,0.1-0.3,0.3-0.1l-0.4,0.5l0,0L15.3,16.1z"/>
	<path d="M15,16.3l-0.4,0v-0.1l0.6-0.3L15,16.3L15,16.3z"/>
	<path d="M15.8,16.1c0.3,0,0.4,0.1,0.3,0.5L15.8,16.1z"/>
	<path d="M14.6,15.3l0.6,0.3l-0.1,0.1L14.6,15.3L14.6,15.3z"/>
	<path d="M20.6,30.3h0.1l-0.4,0.5l0,0L20.6,30.3L20.6,30.3z"/>
	<path d="M35,29.5l-0.2-0.4l0.1,0L35,29.5L35,29.5z"/>
	<path d="M21.4,28.1l0.4,0.4l-0.7,0.2c0-0.1-0.1-0.2-0.1-0.2C21.2,28.4,21.3,28.3,21.4,28.1z"/>
	<path d="M27.8,7.2c-0.1-1,0.7-1.8,1.6-1.9s1.8,0.7,1.9,1.6c0,0.1,0,0.2,0,0.3c-0.1,1-0.9,1.7-1.9,1.6C28.5,8.8,27.8,8.1,27.8,7.2z"
		/>
</g>
</svg>
