<?xml version="1.0" encoding="utf-8"?>
<!-- Generator: Adobe Illustrator 25.4.0, SVG Export Plug-In . SVG Version: 6.00 Build 0)  -->
<svg version="1.1" id="Layer_1" xmlns="http://www.w3.org/2000/svg" xmlns:xlink="http://www.w3.org/1999/xlink" x="0px" y="0px"
	 viewBox="0 0 18.5 18.5" style="enable-background:new 0 0 18.5 18.5;" xml:space="preserve">
<g id="udR8eA.tif">
	<path d="M3.4,6.2v7c0,0.2,0.1,0.4,0.2,0.6L5.5,16c0.1,0.1,0.2,0.3,0.1,0.4H0.2c0-0.2,0-0.3,0.1-0.4l1.8-2.2
		c0.2-0.2,0.2-0.4,0.2-0.6c0-0.7,0-1.4,0-2.1V5c0-0.2,0-0.4-0.2-0.6C1.6,3.8,1,3.1,0.5,2.5C0.5,2.4,0.4,2.3,0.4,2.2
		c0,0,0.1-0.1,0.1-0.1s0.1,0,0.1,0h4.8c0.1,0,0.2,0.1,0.3,0.2C7,5.1,8.3,7.9,9.6,10.7c0,0.1,0.1,0.1,0.1,0.2c0-0.1,0.1-0.1,0.1-0.2
		c1.1-2.8,2.3-5.7,3.4-8.5c0-0.1,0.2-0.2,0.3-0.2h4.8c0.1,0.1,0,0.3-0.1,0.5l-1.3,1.2c-0.1,0.1-0.2,0.3-0.2,0.5c0,0.4,0,0.7,0,1.1
		c0,2.9,0,5.9,0,8.8c0,0.3,0.1,0.6,0.3,0.8c0.4,0.4,0.7,0.7,1.1,1.1c0.1,0.1,0.2,0.3,0.1,0.4h-7.1c0-0.1,0-0.3,0.1-0.4
		c0.4-0.4,0.9-0.8,1.3-1.2c0.1-0.1,0.2-0.2,0.2-0.4V6.2c0,0,0,0,0-0.1s-0.1,0.1-0.1,0.2l-3.9,9.9c-0.1,0.2-0.1,0.2-0.3,0.2H8.3
		c-0.1,0-0.2,0-0.3-0.2c-1.5-3.3-3-6.6-4.5-9.8C3.6,6.3,3.5,6.2,3.4,6.2L3.4,6.2z"/>
</g>
</svg>
