<svg id="Layer_1" data-name="Layer 1" xmlns="http://www.w3.org/2000/svg" viewBox="0 0 257 257"><path d="M45.35,126.44c.16-.38.34-.75.47-1.15a11.8,11.8,0,0,1,11.51-8.44c11.33,0,22.67,0,34,0H198.66c7.13,0,12.44,5.3,12.27,12.18a11.86,11.86,0,0,1-11.16,11.43c-.74,0-1.48,0-2.22,0-45.75,0-91.51-.08-137.26.09-7.44,0-12.64-2.32-14.94-9.69Z"/><path d="M45.35,173.71c.24-.62.49-1.23.72-1.84a11.82,11.82,0,0,1,11.44-7.76q35.1,0,70.21,0,35.66,0,71.31,0a11.81,11.81,0,1,1,0,23.61H177.79c-39.17,0-78.34-.09-117.5.08-7.44,0-12.64-2.31-14.94-9.68Z"/><path d="M201.32,69.57c.62.24,1.23.5,1.85.73a11.79,11.79,0,0,1-3.75,22.88c-5.29.09-10.59,0-15.89,0-41.08,0-82.16-.09-123.24.08-7.43,0-12.63-2.33-14.94-9.68V79.17c1.2-2.08,2.06-4.51,3.7-6.16S53,70.68,55,69.57Z"/></svg>