<svg id="Layer_1" data-name="Layer 1" xmlns="http://www.w3.org/2000/svg" viewBox="0 0 46.49 46.49"><defs><style>.cls-1{fill:#070707;}</style></defs><g id="AhwA8h.tif"><path class="cls-1" d="M23.71,37.76c-3.87,0-7.73,0-11.59,0a3.37,3.37,0,0,1-3.3-2.29,3.71,3.71,0,0,1-.19-1.19q0-10.66,0-21.34a3.4,3.4,0,0,1,3.47-3.48q11.63,0,23.26,0a3.39,3.39,0,0,1,3.47,3.45q0,10.69,0,21.4a3.4,3.4,0,0,1-3.5,3.45C31.45,37.77,27.58,37.76,23.71,37.76ZM24,34.6H34.2c.39,0,.8,0,1-.4s0-.74-.25-1.06L31.5,28.19A1.35,1.35,0,0,0,29.25,28c-.42.42-.81.87-1.25,1.25a2.08,2.08,0,0,1-.88.49,1.4,1.4,0,0,1-1.47-.7L20.19,21.9c-.7-.92-1.42-.85-1.93.17Q15.5,27.53,12.75,33a2.26,2.26,0,0,0-.19.49.79.79,0,0,0,.6,1.06,2.55,2.55,0,0,0,.67.07Zm4.19-13.47a3.3,3.3,0,1,0-3.29-3.31A3.3,3.3,0,0,0,28.14,21.13Z"/></g></svg>