<svg id="Layer_1" data-name="Layer 1" xmlns="http://www.w3.org/2000/svg" viewBox="0 0 13.05 10.46"><path d="M1.73,5.92a.46.46,0,0,1-.37-.22L.1,3.93a.44.44,0,0,1,.33-.72.47.47,0,0,1,.38.21L1,3.67l.1.13.25.36.17-.41,0,0,0-.09A5.1,5.1,0,0,1,5.88.05a6.78,6.78,0,0,1,.77,0,5,5,0,0,1,3.81,1.8.41.41,0,0,1,.09.5.42.42,0,0,1-.39.24h0a.45.45,0,0,1-.35-.19A4.27,4.27,0,0,0,7.52,1a4.21,4.21,0,0,0-1-.12,4.38,4.38,0,0,0-4.13,3s0,.07,0,.1l0,.07-.16.63.54-.38.19-.13.37-.26a.56.56,0,0,1,.31-.11.39.39,0,0,1,.34.18.44.44,0,0,1-.14.63L2,5.81A.51.51,0,0,1,1.73,5.92Z" transform="translate(0)"/><path d="M6.55,10.46A5.09,5.09,0,0,1,2.6,8.68a.49.49,0,0,1-.14-.37A.38.38,0,0,1,2.6,8a.43.43,0,0,1,.28-.11.47.47,0,0,1,.36.18A4.32,4.32,0,0,0,6.56,9.6h.13a4.34,4.34,0,0,0,4-3l0-.06.2-.71-.56.4-.19.13-.38.27a.54.54,0,0,1-.31.1.39.39,0,0,1-.34-.18A.42.42,0,0,1,9,6.23a.5.5,0,0,1,.23-.33L11,4.66a.55.55,0,0,1,.31-.12.47.47,0,0,1,.38.24l1.24,1.74a.54.54,0,0,1,.1.39.44.44,0,0,1-.17.27.46.46,0,0,1-.24.08.53.53,0,0,1-.4-.23l-.17-.24-.35-.5-.17.43,0,.07,0,.12A5.2,5.2,0,0,1,9.58,9.48a5.13,5.13,0,0,1-3,1Z" transform="translate(0)"/></svg>