<svg id="Layer_1" data-name="Layer 1" xmlns="http://www.w3.org/2000/svg" viewBox="0 0 46.49 46.49"><defs><style>.cls-1{fill:#070707;}</style></defs><g id="sLZeta.tif"><path class="cls-1" d="M38.15,12.5c-.14.85-.23,1.71-.44,2.54a21.86,21.86,0,0,1-2.64,5.9,35.93,35.93,0,0,1-4.45,5.9.68.68,0,0,0-.16.7c.13.54.27,1.09.38,1.64a1.82,1.82,0,0,1-.49,1.76l-6.79,6.79a.86.86,0,0,1-.14.13c-.35.28-.66.18-.75-.25s-.16-1-.23-1.42l-.54-3.44a2.24,2.24,0,0,1,.46-1.82c.2-.26.2-.41,0-.64L17,25a.39.39,0,0,0-.59,0,2.31,2.31,0,0,1-1.95.48c-1.51-.26-3-.48-4.55-.72a1.83,1.83,0,0,1-.25-.06c-.38-.11-.48-.38-.24-.7a2.11,2.11,0,0,1,.25-.27l6.58-6.59a2,2,0,0,1,2-.57c.47.13.95.22,1.42.35a1.11,1.11,0,0,0,1.13-.28A36.87,36.87,0,0,1,25.34,13a26.86,26.86,0,0,1,5.88-3.1,10.42,10.42,0,0,1,3.53-.71,3.45,3.45,0,0,1,2.18.64A3.06,3.06,0,0,1,38,12c0,.14,0,.3,0,.44ZM34,16.4a3,3,0,1,0-3,3A3,3,0,0,0,34,16.4Z"/><path class="cls-1" d="M12.14,34.89a9.73,9.73,0,0,1,.25-1A19,19,0,0,1,15.48,28c.17-.22.37-.42.55-.64a.37.37,0,0,1,.57,0l.25.22,3,3,.17.18c.26.31.24.43,0,.71a10.18,10.18,0,0,1-3.79,2.39c-1.21.45-2.38,1-3.56,1.52C12.23,35.51,12.13,35.45,12.14,34.89Z"/></g></svg>