<?xml version="1.0" encoding="utf-8"?>
<!-- Generator: Adobe Illustrator 25.4.0, SVG Export Plug-In . SVG Version: 6.00 Build 0)  -->
<svg version="1.1" id="Layer_1" xmlns="http://www.w3.org/2000/svg" xmlns:xlink="http://www.w3.org/1999/xlink" x="0px" y="0px"
	 viewBox="0 0 18.5 18.5" style="enable-background:new 0 0 18.5 18.5;" xml:space="preserve">
<g id="notNdv.tif">
	<path d="M7,15.9l0.1-1.8c0.1-0.8,0.1-1.5,0.2-2.3c0-0.1,0.1-0.2,0.1-0.2l7.5-6.8L15,4.7l0.1-0.3c-0.1,0-0.2,0-0.3,0
		c-0.1,0-0.2,0.1-0.4,0.2l-9.4,5.8c-0.1,0.1-0.2,0.1-0.3,0L0.9,9.3C0.7,9.2,0.5,9.1,0.4,9C0.2,8.9,0.1,8.7,0.3,8.5
		c0-0.1,0.1-0.1,0.1-0.1C0.6,8.2,0.8,8.1,1,8c1.2-0.5,2.5-1,3.7-1.4L17,1.8c0.1,0,0.2-0.1,0.3-0.1c0.4-0.1,0.8,0.2,0.9,0.6
		c0,0.1,0,0.2,0,0.2c0,0.4-0.1,0.8-0.2,1.2c-0.9,4-1.7,8-2.6,12.1c0,0.2-0.1,0.4-0.2,0.6c-0.2,0.3-0.5,0.5-0.9,0.4
		c-0.2-0.1-0.4-0.1-0.5-0.2L10,13.7c-0.1-0.1-0.2-0.1-0.3,0l-2,1.9C7.5,15.8,7.3,15.9,7,15.9z"/>
</g>
</svg>
