<?xml version="1.0" encoding="utf-8"?>
<!-- Generator: Adobe Illustrator 25.4.0, SVG Export Plug-In . SVG Version: 6.00 Build 0)  -->
<svg version="1.1" id="Layer_1" xmlns="http://www.w3.org/2000/svg" xmlns:xlink="http://www.w3.org/1999/xlink" x="0px" y="0px"
	 viewBox="0 0 18.5 18.5" style="enable-background:new 0 0 18.5 18.5;" xml:space="preserve">
<g id="OuiC4f.tif">
	<path d="M0.2,14.9c1.9,0.2,3.9-0.3,5.4-1.5c-1.5-0.1-2.9-1.1-3.4-2.5c0.5,0.1,1.1,0,1.6-0.1c-1.7-0.4-2.9-1.9-2.9-3.7
		C1.4,7.3,2,7.5,2.6,7.5C1.8,7,1.2,6.2,1,5.2C0.8,4.3,1,3.4,1.5,2.6c1.9,2.3,4.6,3.7,7.6,3.9c0-0.4-0.1-0.7,0-1.1
		c0.1-2,1.9-3.6,3.9-3.5c0.9,0,1.8,0.4,2.4,1.1C15.4,3,15.5,3.1,15.6,3c0.7-0.2,1.4-0.4,2-0.8l0.2-0.1c-0.3,0.8-0.8,1.5-1.5,2
		c0.7-0.1,1.4-0.3,2-0.5C18.1,3.9,18,4,17.8,4.2C17.4,4.6,17,5,16.5,5.5c-0.1,0.1-0.1,0.1-0.1,0.2c0.1,2.2-0.6,4.5-1.8,6.3
		c-1.1,1.7-2.7,3-4.6,3.8c-1,0.4-2.1,0.7-3.2,0.8c-1.3,0.1-2.6,0-3.9-0.4C2,15.9,1.1,15.5,0.2,14.9L0.2,14.9z"/>
</g>
</svg>
